<mxfile host="app.diagrams.net" modified="2022-10-07T15:06:56.849Z" agent="5.0 (Macintosh; Intel Mac OS X 10_15_7) AppleWebKit/537.36 (KHTML, like Gecko) Chrome/105.0.0.0 Safari/537.36" etag="PodMZULoWkMQAAO9pq-Y" version="20.4.0" type="github" pages="2">
  <diagram id="VnlkdWDD-OTya16-6Z_L" name="Page-1">
    <mxGraphModel dx="1298" dy="842" grid="1" gridSize="10" guides="1" tooltips="1" connect="1" arrows="1" fold="1" page="1" pageScale="1" pageWidth="827" pageHeight="1169" math="0" shadow="0">
      <root>
        <mxCell id="0" />
        <mxCell id="1" parent="0" />
        <mxCell id="nQrAimb7asng9hxnftcy-4" style="edgeStyle=orthogonalEdgeStyle;rounded=0;orthogonalLoop=1;jettySize=auto;html=1;exitX=0.5;exitY=1;exitDx=0;exitDy=0;entryX=0.644;entryY=0.008;entryDx=0;entryDy=0;entryPerimeter=0;" edge="1" parent="1" source="nQrAimb7asng9hxnftcy-1" target="nQrAimb7asng9hxnftcy-2">
          <mxGeometry relative="1" as="geometry" />
        </mxCell>
        <mxCell id="nQrAimb7asng9hxnftcy-1" value="SearchCreateClientPayement&lt;br&gt;in Souscription view&lt;br&gt;" style="rounded=0;whiteSpace=wrap;html=1;fillColor=#fff2cc;strokeColor=#d6b656;" vertex="1" parent="1">
          <mxGeometry x="920" y="140" width="170" height="80" as="geometry" />
        </mxCell>
        <mxCell id="nQrAimb7asng9hxnftcy-2" value="CreditCard.jsx" style="shape=parallelogram;perimeter=parallelogramPerimeter;whiteSpace=wrap;html=1;fixedSize=1;fillColor=#dae8fc;strokeColor=#6c8ebf;" vertex="1" parent="1">
          <mxGeometry x="650" y="410" width="160" height="60" as="geometry" />
        </mxCell>
        <mxCell id="nQrAimb7asng9hxnftcy-6" value="&lt;font style=&quot;font-size: 36px;&quot;&gt;DSP2/Systempay global view (with voxpay)&lt;/font&gt;" style="rounded=0;whiteSpace=wrap;html=1;" vertex="1" parent="1">
          <mxGeometry x="360" y="10" width="540" height="80" as="geometry" />
        </mxCell>
        <mxCell id="nQrAimb7asng9hxnftcy-8" style="edgeStyle=orthogonalEdgeStyle;rounded=0;orthogonalLoop=1;jettySize=auto;html=1;exitX=0;exitY=0.5;exitDx=0;exitDy=0;entryX=0.963;entryY=0.383;entryDx=0;entryDy=0;entryPerimeter=0;fontSize=12;" edge="1" parent="1" source="nQrAimb7asng9hxnftcy-7" target="nQrAimb7asng9hxnftcy-2">
          <mxGeometry relative="1" as="geometry" />
        </mxCell>
        <mxCell id="nQrAimb7asng9hxnftcy-7" value="&lt;font style=&quot;font-size: 12px;&quot;&gt;ModifyModal &lt;br&gt;in modfification payment view (finances)&lt;br&gt;&lt;/font&gt;" style="rounded=0;whiteSpace=wrap;html=1;fontSize=36;fillColor=#fff2cc;strokeColor=#d6b656;" vertex="1" parent="1">
          <mxGeometry x="1020" y="330" width="220" height="95" as="geometry" />
        </mxCell>
        <mxCell id="nQrAimb7asng9hxnftcy-46" style="edgeStyle=orthogonalEdgeStyle;rounded=0;orthogonalLoop=1;jettySize=auto;html=1;exitX=0.5;exitY=0;exitDx=0;exitDy=0;entryX=0;entryY=0.5;entryDx=0;entryDy=0;fontSize=12;" edge="1" parent="1" source="nQrAimb7asng9hxnftcy-9" target="nQrAimb7asng9hxnftcy-45">
          <mxGeometry relative="1" as="geometry" />
        </mxCell>
        <mxCell id="nQrAimb7asng9hxnftcy-9" value="CreditCardForm.jsx" style="shape=parallelogram;perimeter=parallelogramPerimeter;whiteSpace=wrap;html=1;fixedSize=1;fontSize=12;fillColor=#dae8fc;strokeColor=#6c8ebf;" vertex="1" parent="1">
          <mxGeometry x="450" y="380" width="156" height="60" as="geometry" />
        </mxCell>
        <mxCell id="nQrAimb7asng9hxnftcy-53" style="edgeStyle=orthogonalEdgeStyle;rounded=0;orthogonalLoop=1;jettySize=auto;html=1;exitX=0.5;exitY=0;exitDx=0;exitDy=0;entryX=0.5;entryY=1;entryDx=0;entryDy=0;fontSize=12;" edge="1" parent="1" source="nQrAimb7asng9hxnftcy-11" target="nQrAimb7asng9hxnftcy-51">
          <mxGeometry relative="1" as="geometry" />
        </mxCell>
        <mxCell id="nQrAimb7asng9hxnftcy-11" value="UnpaidBalanceModal.jsx" style="shape=parallelogram;perimeter=parallelogramPerimeter;whiteSpace=wrap;html=1;fixedSize=1;fontSize=12;fillColor=#dae8fc;strokeColor=#6c8ebf;" vertex="1" parent="1">
          <mxGeometry x="190" y="460" width="210" height="60" as="geometry" />
        </mxCell>
        <mxCell id="nQrAimb7asng9hxnftcy-15" style="edgeStyle=orthogonalEdgeStyle;rounded=0;orthogonalLoop=1;jettySize=auto;html=1;entryX=0.5;entryY=1;entryDx=0;entryDy=0;fontSize=12;" edge="1" parent="1" source="nQrAimb7asng9hxnftcy-13" target="nQrAimb7asng9hxnftcy-11">
          <mxGeometry relative="1" as="geometry" />
        </mxCell>
        <mxCell id="nQrAimb7asng9hxnftcy-13" value="UnpaidBalanceModalLink.jsx" style="shape=parallelogram;perimeter=parallelogramPerimeter;whiteSpace=wrap;html=1;fixedSize=1;fontSize=12;fillColor=#dae8fc;strokeColor=#6c8ebf;" vertex="1" parent="1">
          <mxGeometry x="190" y="585" width="210" height="60" as="geometry" />
        </mxCell>
        <mxCell id="nQrAimb7asng9hxnftcy-17" style="edgeStyle=orthogonalEdgeStyle;rounded=0;orthogonalLoop=1;jettySize=auto;html=1;exitX=0.5;exitY=0;exitDx=0;exitDy=0;entryX=0.5;entryY=1;entryDx=0;entryDy=0;fontSize=12;" edge="1" parent="1" source="nQrAimb7asng9hxnftcy-16" target="nQrAimb7asng9hxnftcy-13">
          <mxGeometry relative="1" as="geometry" />
        </mxCell>
        <mxCell id="nQrAimb7asng9hxnftcy-40" style="edgeStyle=orthogonalEdgeStyle;rounded=0;orthogonalLoop=1;jettySize=auto;html=1;exitX=0;exitY=0.5;exitDx=0;exitDy=0;entryX=0.5;entryY=1;entryDx=0;entryDy=0;entryPerimeter=0;fontSize=12;" edge="1" parent="1" source="nQrAimb7asng9hxnftcy-16" target="nQrAimb7asng9hxnftcy-39">
          <mxGeometry relative="1" as="geometry" />
        </mxCell>
        <mxCell id="nQrAimb7asng9hxnftcy-16" value="CurrentFileFinancesDirectDebitsView&lt;br&gt;in Refund view (finances)" style="rounded=0;whiteSpace=wrap;html=1;fontSize=12;fillColor=#fff2cc;strokeColor=#d6b656;" vertex="1" parent="1">
          <mxGeometry x="210" y="710" width="220" height="60" as="geometry" />
        </mxCell>
        <mxCell id="nQrAimb7asng9hxnftcy-20" style="edgeStyle=orthogonalEdgeStyle;rounded=0;orthogonalLoop=1;jettySize=auto;html=1;exitX=0.5;exitY=0;exitDx=0;exitDy=0;entryX=0.25;entryY=1;entryDx=0;entryDy=0;fontSize=12;" edge="1" parent="1" source="nQrAimb7asng9hxnftcy-18" target="nQrAimb7asng9hxnftcy-9">
          <mxGeometry relative="1" as="geometry" />
        </mxCell>
        <mxCell id="nQrAimb7asng9hxnftcy-42" style="edgeStyle=orthogonalEdgeStyle;rounded=0;orthogonalLoop=1;jettySize=auto;html=1;exitX=1;exitY=0.5;exitDx=0;exitDy=0;entryX=0;entryY=0.5;entryDx=0;entryDy=0;entryPerimeter=0;fontSize=12;" edge="1" parent="1" source="nQrAimb7asng9hxnftcy-18" target="nQrAimb7asng9hxnftcy-41">
          <mxGeometry relative="1" as="geometry" />
        </mxCell>
        <mxCell id="nQrAimb7asng9hxnftcy-18" value="EncashmentCreateModal&lt;br&gt;in Encashment view (finances)" style="rounded=0;whiteSpace=wrap;html=1;fontSize=12;fillColor=#fff2cc;strokeColor=#d6b656;" vertex="1" parent="1">
          <mxGeometry x="450" y="585" width="160" height="70" as="geometry" />
        </mxCell>
        <mxCell id="nQrAimb7asng9hxnftcy-63" style="edgeStyle=orthogonalEdgeStyle;rounded=0;orthogonalLoop=1;jettySize=auto;html=1;exitX=0.5;exitY=0;exitDx=0;exitDy=0;fontSize=12;" edge="1" parent="1" source="nQrAimb7asng9hxnftcy-21" target="nQrAimb7asng9hxnftcy-58">
          <mxGeometry relative="1" as="geometry" />
        </mxCell>
        <mxCell id="nQrAimb7asng9hxnftcy-21" value="RegularizationForm.jsx" style="shape=parallelogram;perimeter=parallelogramPerimeter;whiteSpace=wrap;html=1;fixedSize=1;fontSize=12;fillColor=#dae8fc;strokeColor=#6c8ebf;" vertex="1" parent="1">
          <mxGeometry x="520" y="170" width="180" height="60" as="geometry" />
        </mxCell>
        <mxCell id="nQrAimb7asng9hxnftcy-25" style="edgeStyle=orthogonalEdgeStyle;rounded=0;orthogonalLoop=1;jettySize=auto;html=1;exitX=1;exitY=0.5;exitDx=0;exitDy=0;entryX=0;entryY=0.5;entryDx=0;entryDy=0;fontSize=12;" edge="1" parent="1" source="nQrAimb7asng9hxnftcy-23" target="nQrAimb7asng9hxnftcy-21">
          <mxGeometry relative="1" as="geometry" />
        </mxCell>
        <mxCell id="nQrAimb7asng9hxnftcy-23" value="AssistedPaymentForm.jsx" style="shape=parallelogram;perimeter=parallelogramPerimeter;whiteSpace=wrap;html=1;fixedSize=1;fontSize=12;fillColor=#dae8fc;strokeColor=#6c8ebf;" vertex="1" parent="1">
          <mxGeometry x="130" y="220" width="180" height="60" as="geometry" />
        </mxCell>
        <mxCell id="nQrAimb7asng9hxnftcy-27" value="graph legend" style="text;html=1;strokeColor=none;fillColor=none;align=center;verticalAlign=middle;whiteSpace=wrap;rounded=0;fontSize=12;" vertex="1" parent="1">
          <mxGeometry x="1030" y="520" width="170" height="30" as="geometry" />
        </mxCell>
        <mxCell id="nQrAimb7asng9hxnftcy-29" value="" style="endArrow=none;dashed=1;html=1;dashPattern=1 3;strokeWidth=2;rounded=0;fontSize=12;" edge="1" parent="1">
          <mxGeometry width="50" height="50" relative="1" as="geometry">
            <mxPoint x="940" y="560" as="sourcePoint" />
            <mxPoint x="1340" y="560" as="targetPoint" />
            <Array as="points">
              <mxPoint x="1170" y="560" />
            </Array>
          </mxGeometry>
        </mxCell>
        <mxCell id="nQrAimb7asng9hxnftcy-31" value="" style="endArrow=none;dashed=1;html=1;dashPattern=1 3;strokeWidth=2;rounded=0;fontSize=12;" edge="1" parent="1">
          <mxGeometry width="50" height="50" relative="1" as="geometry">
            <mxPoint x="940" y="780" as="sourcePoint" />
            <mxPoint x="940" y="560" as="targetPoint" />
          </mxGeometry>
        </mxCell>
        <mxCell id="nQrAimb7asng9hxnftcy-32" value="angular module" style="rounded=0;whiteSpace=wrap;html=1;fontSize=12;fillColor=#fff2cc;strokeColor=#d6b656;" vertex="1" parent="1">
          <mxGeometry x="1070" y="580" width="120" height="60" as="geometry" />
        </mxCell>
        <mxCell id="nQrAimb7asng9hxnftcy-34" value="react component" style="shape=parallelogram;perimeter=parallelogramPerimeter;whiteSpace=wrap;html=1;fixedSize=1;fontSize=12;fillColor=#dae8fc;strokeColor=#6c8ebf;" vertex="1" parent="1">
          <mxGeometry x="1170" y="670" width="120" height="60" as="geometry" />
        </mxCell>
        <mxCell id="nQrAimb7asng9hxnftcy-35" value="DegradedMode.jsx" style="shape=parallelogram;perimeter=parallelogramPerimeter;whiteSpace=wrap;html=1;fixedSize=1;fontSize=12;fillColor=#dae8fc;strokeColor=#6c8ebf;" vertex="1" parent="1">
          <mxGeometry x="100" y="110" width="174" height="60" as="geometry" />
        </mxCell>
        <mxCell id="nQrAimb7asng9hxnftcy-39" value="need to handle&amp;nbsp; one&lt;br&gt;bill" style="shape=note;whiteSpace=wrap;html=1;backgroundOutline=1;darkOpacity=0.05;fontSize=12;" vertex="1" parent="1">
          <mxGeometry x="50" y="455" width="100" height="140" as="geometry" />
        </mxCell>
        <mxCell id="nQrAimb7asng9hxnftcy-41" value="need to handle one or multiple bills&lt;br&gt;feature flipping:&lt;br&gt;&lt;span style=&quot;color: rgba(0, 0, 0, 0.87); font-family: &amp;quot;Roboto Slab&amp;quot;, serif; font-size: 13px; text-align: left; background-color: rgb(250, 250, 250);&quot;&gt;SIDIST-35978-ENCAISSMENTS-GROUPES and&lt;br&gt;&lt;/span&gt;&lt;span style=&quot;color: rgba(0, 0, 0, 0.87); font-family: &amp;quot;Roboto Slab&amp;quot;, serif; font-size: 13px; text-align: left; background-color: rgb(250, 250, 250);&quot;&gt;SIDIST-39464-EXTENSIONS-FACTURES&lt;/span&gt;&lt;span style=&quot;color: rgba(0, 0, 0, 0.87); font-family: &amp;quot;Roboto Slab&amp;quot;, serif; font-size: 13px; text-align: left; background-color: rgb(250, 250, 250);&quot;&gt;&lt;br&gt;&lt;/span&gt;" style="shape=note;whiteSpace=wrap;html=1;backgroundOutline=1;darkOpacity=0.05;fontSize=12;" vertex="1" parent="1">
          <mxGeometry x="740" y="530" width="180" height="180" as="geometry" />
        </mxCell>
        <mxCell id="nQrAimb7asng9hxnftcy-47" style="edgeStyle=orthogonalEdgeStyle;rounded=0;orthogonalLoop=1;jettySize=auto;html=1;exitX=0.5;exitY=0;exitDx=0;exitDy=0;entryX=0.644;entryY=1.058;entryDx=0;entryDy=0;entryPerimeter=0;fontSize=12;" edge="1" parent="1" source="nQrAimb7asng9hxnftcy-45" target="nQrAimb7asng9hxnftcy-21">
          <mxGeometry relative="1" as="geometry" />
        </mxCell>
        <mxCell id="nQrAimb7asng9hxnftcy-48" style="edgeStyle=orthogonalEdgeStyle;rounded=0;orthogonalLoop=1;jettySize=auto;html=1;exitX=0.5;exitY=1;exitDx=0;exitDy=0;entryX=0.25;entryY=0;entryDx=0;entryDy=0;fontSize=12;" edge="1" parent="1" source="nQrAimb7asng9hxnftcy-45" target="nQrAimb7asng9hxnftcy-2">
          <mxGeometry relative="1" as="geometry" />
        </mxCell>
        <mxCell id="nQrAimb7asng9hxnftcy-45" value="is Step 1 ?" style="rhombus;whiteSpace=wrap;html=1;fontSize=12;fillColor=#d5e8d4;strokeColor=#82b366;" vertex="1" parent="1">
          <mxGeometry x="550" y="270" width="170" height="80" as="geometry" />
        </mxCell>
        <mxCell id="nQrAimb7asng9hxnftcy-49" value="No" style="text;html=1;strokeColor=none;fillColor=none;align=center;verticalAlign=middle;whiteSpace=wrap;rounded=0;fontSize=12;" vertex="1" parent="1">
          <mxGeometry x="640" y="350" width="60" height="30" as="geometry" />
        </mxCell>
        <mxCell id="nQrAimb7asng9hxnftcy-50" value="yes" style="text;html=1;strokeColor=none;fillColor=none;align=center;verticalAlign=middle;whiteSpace=wrap;rounded=0;fontSize=12;" vertex="1" parent="1">
          <mxGeometry x="650" y="240" width="60" height="30" as="geometry" />
        </mxCell>
        <mxCell id="nQrAimb7asng9hxnftcy-54" style="edgeStyle=orthogonalEdgeStyle;rounded=0;orthogonalLoop=1;jettySize=auto;html=1;exitX=1;exitY=0.5;exitDx=0;exitDy=0;fontSize=12;" edge="1" parent="1" source="nQrAimb7asng9hxnftcy-51" target="nQrAimb7asng9hxnftcy-9">
          <mxGeometry relative="1" as="geometry" />
        </mxCell>
        <mxCell id="nQrAimb7asng9hxnftcy-56" style="edgeStyle=orthogonalEdgeStyle;rounded=0;orthogonalLoop=1;jettySize=auto;html=1;exitX=0.5;exitY=0;exitDx=0;exitDy=0;entryX=0.378;entryY=1.05;entryDx=0;entryDy=0;entryPerimeter=0;fontSize=12;" edge="1" parent="1" source="nQrAimb7asng9hxnftcy-51" target="nQrAimb7asng9hxnftcy-23">
          <mxGeometry relative="1" as="geometry" />
        </mxCell>
        <mxCell id="nQrAimb7asng9hxnftcy-51" value="is Voxpay and &lt;br&gt;SIDIST-39391_VOXPAY_STATUS_FALSE&lt;br&gt;&lt;span style=&quot;background-color: initial; text-align: left;&quot;&gt;is active ?&amp;nbsp;&lt;/span&gt;" style="rhombus;whiteSpace=wrap;html=1;fontSize=12;fillColor=#d5e8d4;strokeColor=#82b366;" vertex="1" parent="1">
          <mxGeometry x="130" y="325" width="256" height="100" as="geometry" />
        </mxCell>
        <mxCell id="nQrAimb7asng9hxnftcy-55" value="No" style="text;html=1;strokeColor=none;fillColor=none;align=center;verticalAlign=middle;whiteSpace=wrap;rounded=0;fontSize=12;" vertex="1" parent="1">
          <mxGeometry x="386" y="350" width="60" height="30" as="geometry" />
        </mxCell>
        <mxCell id="nQrAimb7asng9hxnftcy-57" value="Yes" style="text;html=1;strokeColor=none;fillColor=none;align=center;verticalAlign=middle;whiteSpace=wrap;rounded=0;fontSize=12;" vertex="1" parent="1">
          <mxGeometry x="140" y="295" width="60" height="30" as="geometry" />
        </mxCell>
        <mxCell id="nQrAimb7asng9hxnftcy-60" style="edgeStyle=orthogonalEdgeStyle;rounded=0;orthogonalLoop=1;jettySize=auto;html=1;exitX=0;exitY=0.5;exitDx=0;exitDy=0;entryX=1;entryY=0.5;entryDx=0;entryDy=0;fontSize=12;" edge="1" parent="1" source="nQrAimb7asng9hxnftcy-58" target="nQrAimb7asng9hxnftcy-35">
          <mxGeometry relative="1" as="geometry" />
        </mxCell>
        <mxCell id="nQrAimb7asng9hxnftcy-58" value="is there no callUuid ?" style="rhombus;whiteSpace=wrap;html=1;fontSize=12;fillColor=#d5e8d4;strokeColor=#82b366;" vertex="1" parent="1">
          <mxGeometry x="330" y="100" width="150" height="80" as="geometry" />
        </mxCell>
        <mxCell id="nQrAimb7asng9hxnftcy-61" value="yes" style="text;html=1;strokeColor=none;fillColor=none;align=center;verticalAlign=middle;whiteSpace=wrap;rounded=0;fontSize=12;" vertex="1" parent="1">
          <mxGeometry x="280" y="100" width="60" height="30" as="geometry" />
        </mxCell>
        <mxCell id="nQrAimb7asng9hxnftcy-62" value="conditional" style="rhombus;whiteSpace=wrap;html=1;fontSize=12;fillColor=#d5e8d4;strokeColor=#82b366;" vertex="1" parent="1">
          <mxGeometry x="960" y="650" width="160" height="80" as="geometry" />
        </mxCell>
        <mxCell id="nQrAimb7asng9hxnftcy-65" value="" style="ellipse;whiteSpace=wrap;html=1;fontSize=12;fillColor=none;strokeColor=#FF0000;" vertex="1" parent="1">
          <mxGeometry x="410" y="330" width="230" height="150" as="geometry" />
        </mxCell>
        <mxCell id="nQrAimb7asng9hxnftcy-67" value="" style="ellipse;whiteSpace=wrap;html=1;fontSize=12;fillColor=none;strokeColor=#FF0000;" vertex="1" parent="1">
          <mxGeometry x="490" y="150" width="240" height="110" as="geometry" />
        </mxCell>
      </root>
    </mxGraphModel>
  </diagram>
  <diagram id="8OLOt3S28jrXy8Qwgcgk" name="Page-2">
    <mxGraphModel dx="2253" dy="802" grid="1" gridSize="10" guides="1" tooltips="1" connect="1" arrows="1" fold="1" page="1" pageScale="1" pageWidth="827" pageHeight="1169" math="0" shadow="0">
      <root>
        <mxCell id="0" />
        <mxCell id="1" parent="0" />
        <mxCell id="63oONz0xdTf-GP-1cinu-1" style="edgeStyle=orthogonalEdgeStyle;rounded=0;orthogonalLoop=1;jettySize=auto;html=1;exitX=0.5;exitY=1;exitDx=0;exitDy=0;entryX=0.644;entryY=0.008;entryDx=0;entryDy=0;entryPerimeter=0;" edge="1" parent="1" source="63oONz0xdTf-GP-1cinu-2" target="63oONz0xdTf-GP-1cinu-3">
          <mxGeometry relative="1" as="geometry" />
        </mxCell>
        <mxCell id="63oONz0xdTf-GP-1cinu-2" value="SearchCreateClientPayement&lt;br&gt;in Souscription view&lt;br&gt;" style="rounded=0;whiteSpace=wrap;html=1;fillColor=#fff2cc;strokeColor=#d6b656;" vertex="1" parent="1">
          <mxGeometry x="970" y="190" width="170" height="80" as="geometry" />
        </mxCell>
        <mxCell id="63oONz0xdTf-GP-1cinu-3" value="CreditCard.jsx" style="shape=parallelogram;perimeter=parallelogramPerimeter;whiteSpace=wrap;html=1;fixedSize=1;fillColor=#dae8fc;strokeColor=#6c8ebf;" vertex="1" parent="1">
          <mxGeometry x="770" y="425" width="160" height="60" as="geometry" />
        </mxCell>
        <mxCell id="63oONz0xdTf-GP-1cinu-4" style="edgeStyle=orthogonalEdgeStyle;rounded=0;orthogonalLoop=1;jettySize=auto;html=1;exitX=0;exitY=0.5;exitDx=0;exitDy=0;entryX=0.963;entryY=0.383;entryDx=0;entryDy=0;entryPerimeter=0;fontSize=12;" edge="1" parent="1" source="63oONz0xdTf-GP-1cinu-5" target="63oONz0xdTf-GP-1cinu-3">
          <mxGeometry relative="1" as="geometry" />
        </mxCell>
        <mxCell id="63oONz0xdTf-GP-1cinu-5" value="&lt;font style=&quot;font-size: 12px;&quot;&gt;ModifyModal &lt;br&gt;in modfification payment view (finances)&lt;br&gt;&lt;/font&gt;" style="rounded=0;whiteSpace=wrap;html=1;fontSize=36;fillColor=#fff2cc;strokeColor=#d6b656;" vertex="1" parent="1">
          <mxGeometry x="1050" y="455" width="220" height="95" as="geometry" />
        </mxCell>
        <mxCell id="63oONz0xdTf-GP-1cinu-6" style="edgeStyle=orthogonalEdgeStyle;rounded=0;orthogonalLoop=1;jettySize=auto;html=1;exitX=0.5;exitY=0;exitDx=0;exitDy=0;entryX=0;entryY=0.5;entryDx=0;entryDy=0;fontSize=12;" edge="1" parent="1" source="63oONz0xdTf-GP-1cinu-7" target="63oONz0xdTf-GP-1cinu-30">
          <mxGeometry relative="1" as="geometry" />
        </mxCell>
        <mxCell id="63oONz0xdTf-GP-1cinu-56" style="edgeStyle=orthogonalEdgeStyle;rounded=0;orthogonalLoop=1;jettySize=auto;html=1;exitX=0;exitY=0.5;exitDx=0;exitDy=0;entryX=0.5;entryY=1;entryDx=0;entryDy=0;fontSize=12;" edge="1" parent="1" source="63oONz0xdTf-GP-1cinu-7" target="63oONz0xdTf-GP-1cinu-54">
          <mxGeometry relative="1" as="geometry" />
        </mxCell>
        <mxCell id="63oONz0xdTf-GP-1cinu-7" value="CreditCardForm.jsx" style="shape=parallelogram;perimeter=parallelogramPerimeter;whiteSpace=wrap;html=1;fixedSize=1;fontSize=12;fillColor=#dae8fc;strokeColor=#6c8ebf;" vertex="1" parent="1">
          <mxGeometry x="640" y="570" width="156" height="60" as="geometry" />
        </mxCell>
        <mxCell id="63oONz0xdTf-GP-1cinu-8" style="edgeStyle=orthogonalEdgeStyle;rounded=0;orthogonalLoop=1;jettySize=auto;html=1;exitX=0.5;exitY=0;exitDx=0;exitDy=0;entryX=0.5;entryY=1;entryDx=0;entryDy=0;fontSize=12;" edge="1" parent="1" source="63oONz0xdTf-GP-1cinu-9" target="63oONz0xdTf-GP-1cinu-35">
          <mxGeometry relative="1" as="geometry" />
        </mxCell>
        <mxCell id="63oONz0xdTf-GP-1cinu-9" value="UnpaidBalanceModal.jsx" style="shape=parallelogram;perimeter=parallelogramPerimeter;whiteSpace=wrap;html=1;fixedSize=1;fontSize=12;fillColor=#dae8fc;strokeColor=#6c8ebf;" vertex="1" parent="1">
          <mxGeometry x="82" y="525" width="210" height="60" as="geometry" />
        </mxCell>
        <mxCell id="63oONz0xdTf-GP-1cinu-10" style="edgeStyle=orthogonalEdgeStyle;rounded=0;orthogonalLoop=1;jettySize=auto;html=1;entryX=0.5;entryY=1;entryDx=0;entryDy=0;fontSize=12;" edge="1" parent="1" source="63oONz0xdTf-GP-1cinu-11" target="63oONz0xdTf-GP-1cinu-9">
          <mxGeometry relative="1" as="geometry" />
        </mxCell>
        <mxCell id="63oONz0xdTf-GP-1cinu-11" value="UnpaidBalanceModalLink.jsx" style="shape=parallelogram;perimeter=parallelogramPerimeter;whiteSpace=wrap;html=1;fixedSize=1;fontSize=12;fillColor=#dae8fc;strokeColor=#6c8ebf;" vertex="1" parent="1">
          <mxGeometry x="64" y="630" width="210" height="60" as="geometry" />
        </mxCell>
        <mxCell id="63oONz0xdTf-GP-1cinu-12" style="edgeStyle=orthogonalEdgeStyle;rounded=0;orthogonalLoop=1;jettySize=auto;html=1;exitX=0.5;exitY=0;exitDx=0;exitDy=0;entryX=0.5;entryY=1;entryDx=0;entryDy=0;fontSize=12;" edge="1" parent="1" source="63oONz0xdTf-GP-1cinu-14" target="63oONz0xdTf-GP-1cinu-11">
          <mxGeometry relative="1" as="geometry" />
        </mxCell>
        <mxCell id="63oONz0xdTf-GP-1cinu-13" style="edgeStyle=orthogonalEdgeStyle;rounded=0;orthogonalLoop=1;jettySize=auto;html=1;exitX=0;exitY=0.5;exitDx=0;exitDy=0;entryX=0.5;entryY=1;entryDx=0;entryDy=0;entryPerimeter=0;fontSize=12;" edge="1" parent="1" source="63oONz0xdTf-GP-1cinu-14" target="63oONz0xdTf-GP-1cinu-26">
          <mxGeometry relative="1" as="geometry" />
        </mxCell>
        <mxCell id="63oONz0xdTf-GP-1cinu-14" value="CurrentFileFinancesDirectDebitsView&lt;br&gt;in Refund view (finances)" style="rounded=0;whiteSpace=wrap;html=1;fontSize=12;fillColor=#fff2cc;strokeColor=#d6b656;" vertex="1" parent="1">
          <mxGeometry x="77" y="760" width="220" height="60" as="geometry" />
        </mxCell>
        <mxCell id="63oONz0xdTf-GP-1cinu-15" style="edgeStyle=orthogonalEdgeStyle;rounded=0;orthogonalLoop=1;jettySize=auto;html=1;exitX=0.5;exitY=0;exitDx=0;exitDy=0;entryX=0.25;entryY=1;entryDx=0;entryDy=0;fontSize=12;" edge="1" parent="1" source="63oONz0xdTf-GP-1cinu-17" target="63oONz0xdTf-GP-1cinu-7">
          <mxGeometry relative="1" as="geometry" />
        </mxCell>
        <mxCell id="63oONz0xdTf-GP-1cinu-16" style="edgeStyle=orthogonalEdgeStyle;rounded=0;orthogonalLoop=1;jettySize=auto;html=1;exitX=1;exitY=0.5;exitDx=0;exitDy=0;entryX=0;entryY=0.5;entryDx=0;entryDy=0;entryPerimeter=0;fontSize=12;" edge="1" parent="1" source="63oONz0xdTf-GP-1cinu-17" target="63oONz0xdTf-GP-1cinu-27">
          <mxGeometry relative="1" as="geometry" />
        </mxCell>
        <mxCell id="63oONz0xdTf-GP-1cinu-17" value="EncashmentCreateModal&lt;br&gt;in Encashment view (finances)" style="rounded=0;whiteSpace=wrap;html=1;fontSize=12;fillColor=#fff2cc;strokeColor=#d6b656;" vertex="1" parent="1">
          <mxGeometry x="650" y="710" width="160" height="70" as="geometry" />
        </mxCell>
        <mxCell id="63oONz0xdTf-GP-1cinu-49" style="edgeStyle=orthogonalEdgeStyle;rounded=0;orthogonalLoop=1;jettySize=auto;html=1;exitX=0;exitY=0.5;exitDx=0;exitDy=0;entryX=1;entryY=0.5;entryDx=0;entryDy=0;fontSize=12;" edge="1" parent="1" source="63oONz0xdTf-GP-1cinu-19" target="63oONz0xdTf-GP-1cinu-46">
          <mxGeometry relative="1" as="geometry" />
        </mxCell>
        <mxCell id="63oONz0xdTf-GP-1cinu-19" value="RegularizationForm.jsx" style="shape=parallelogram;perimeter=parallelogramPerimeter;whiteSpace=wrap;html=1;fixedSize=1;fontSize=12;fillColor=#dae8fc;strokeColor=#6c8ebf;" vertex="1" parent="1">
          <mxGeometry x="720" y="140" width="180" height="60" as="geometry" />
        </mxCell>
        <mxCell id="63oONz0xdTf-GP-1cinu-45" style="edgeStyle=orthogonalEdgeStyle;rounded=0;orthogonalLoop=1;jettySize=auto;html=1;exitX=1;exitY=0.5;exitDx=0;exitDy=0;fontSize=12;" edge="1" parent="1" source="63oONz0xdTf-GP-1cinu-21" target="63oONz0xdTf-GP-1cinu-44">
          <mxGeometry relative="1" as="geometry" />
        </mxCell>
        <mxCell id="63oONz0xdTf-GP-1cinu-21" value="AssistedPaymentForm.jsx" style="shape=parallelogram;perimeter=parallelogramPerimeter;whiteSpace=wrap;html=1;fixedSize=1;fontSize=12;fillColor=#dae8fc;strokeColor=#6c8ebf;" vertex="1" parent="1">
          <mxGeometry x="60" y="210" width="180" height="60" as="geometry" />
        </mxCell>
        <mxCell id="63oONz0xdTf-GP-1cinu-25" value="DegradedMode.jsx" style="shape=parallelogram;perimeter=parallelogramPerimeter;whiteSpace=wrap;html=1;fixedSize=1;fontSize=12;fillColor=#dae8fc;strokeColor=#6c8ebf;" vertex="1" parent="1">
          <mxGeometry x="100" y="110" width="174" height="60" as="geometry" />
        </mxCell>
        <mxCell id="63oONz0xdTf-GP-1cinu-26" value="need to handle&amp;nbsp; one&lt;br&gt;bill" style="shape=note;whiteSpace=wrap;html=1;backgroundOutline=1;darkOpacity=0.05;fontSize=12;" vertex="1" parent="1">
          <mxGeometry x="-10" y="390" width="100" height="140" as="geometry" />
        </mxCell>
        <mxCell id="63oONz0xdTf-GP-1cinu-27" value="need to handle one or multiple bills&lt;br&gt;feature flipping:&lt;br&gt;&lt;span style=&quot;color: rgba(0, 0, 0, 0.87); font-family: &amp;quot;Roboto Slab&amp;quot;, serif; font-size: 13px; text-align: left; background-color: rgb(250, 250, 250);&quot;&gt;SIDIST-35978-ENCAISSMENTS-GROUPES and&lt;br&gt;&lt;/span&gt;&lt;span style=&quot;color: rgba(0, 0, 0, 0.87); font-family: &amp;quot;Roboto Slab&amp;quot;, serif; font-size: 13px; text-align: left; background-color: rgb(250, 250, 250);&quot;&gt;SIDIST-39464-EXTENSIONS-FACTURES&lt;/span&gt;&lt;span style=&quot;color: rgba(0, 0, 0, 0.87); font-family: &amp;quot;Roboto Slab&amp;quot;, serif; font-size: 13px; text-align: left; background-color: rgb(250, 250, 250);&quot;&gt;&lt;br&gt;&lt;/span&gt;" style="shape=note;whiteSpace=wrap;html=1;backgroundOutline=1;darkOpacity=0.05;fontSize=12;" vertex="1" parent="1">
          <mxGeometry x="850" y="585" width="180" height="180" as="geometry" />
        </mxCell>
        <mxCell id="63oONz0xdTf-GP-1cinu-28" style="edgeStyle=orthogonalEdgeStyle;rounded=0;orthogonalLoop=1;jettySize=auto;html=1;exitX=0.5;exitY=0;exitDx=0;exitDy=0;entryX=0.644;entryY=1.058;entryDx=0;entryDy=0;entryPerimeter=0;fontSize=12;" edge="1" parent="1" source="63oONz0xdTf-GP-1cinu-30" target="63oONz0xdTf-GP-1cinu-19">
          <mxGeometry relative="1" as="geometry" />
        </mxCell>
        <mxCell id="63oONz0xdTf-GP-1cinu-29" style="edgeStyle=orthogonalEdgeStyle;rounded=0;orthogonalLoop=1;jettySize=auto;html=1;exitX=0.5;exitY=1;exitDx=0;exitDy=0;entryX=0.25;entryY=0;entryDx=0;entryDy=0;fontSize=12;" edge="1" parent="1" source="63oONz0xdTf-GP-1cinu-30" target="63oONz0xdTf-GP-1cinu-3">
          <mxGeometry relative="1" as="geometry" />
        </mxCell>
        <mxCell id="63oONz0xdTf-GP-1cinu-30" value="is Step 1 ?" style="rhombus;whiteSpace=wrap;html=1;fontSize=12;fillColor=#d5e8d4;strokeColor=#82b366;" vertex="1" parent="1">
          <mxGeometry x="610" y="270" width="170" height="80" as="geometry" />
        </mxCell>
        <mxCell id="63oONz0xdTf-GP-1cinu-31" value="No" style="text;html=1;strokeColor=none;fillColor=none;align=center;verticalAlign=middle;whiteSpace=wrap;rounded=0;fontSize=12;" vertex="1" parent="1">
          <mxGeometry x="760" y="360" width="60" height="30" as="geometry" />
        </mxCell>
        <mxCell id="63oONz0xdTf-GP-1cinu-32" value="yes" style="text;html=1;strokeColor=none;fillColor=none;align=center;verticalAlign=middle;whiteSpace=wrap;rounded=0;fontSize=12;" vertex="1" parent="1">
          <mxGeometry x="770" y="240" width="60" height="30" as="geometry" />
        </mxCell>
        <mxCell id="63oONz0xdTf-GP-1cinu-34" style="edgeStyle=orthogonalEdgeStyle;rounded=0;orthogonalLoop=1;jettySize=auto;html=1;exitX=0.5;exitY=0;exitDx=0;exitDy=0;entryX=0.378;entryY=1.05;entryDx=0;entryDy=0;entryPerimeter=0;fontSize=12;" edge="1" parent="1" source="63oONz0xdTf-GP-1cinu-35" target="63oONz0xdTf-GP-1cinu-21">
          <mxGeometry relative="1" as="geometry" />
        </mxCell>
        <mxCell id="63oONz0xdTf-GP-1cinu-53" style="edgeStyle=orthogonalEdgeStyle;rounded=0;orthogonalLoop=1;jettySize=auto;html=1;exitX=1;exitY=0.5;exitDx=0;exitDy=0;entryX=0;entryY=0.5;entryDx=0;entryDy=0;fontSize=12;" edge="1" parent="1" source="63oONz0xdTf-GP-1cinu-35" target="63oONz0xdTf-GP-1cinu-52">
          <mxGeometry relative="1" as="geometry" />
        </mxCell>
        <mxCell id="63oONz0xdTf-GP-1cinu-35" value="is Voxpay and &lt;br&gt;SIDIST-39391_VOXPAY_STATUS_FALSE&lt;br&gt;&lt;span style=&quot;background-color: initial; text-align: left;&quot;&gt;is active ?&amp;nbsp;&lt;/span&gt;" style="rhombus;whiteSpace=wrap;html=1;fontSize=12;fillColor=#d5e8d4;strokeColor=#82b366;" vertex="1" parent="1">
          <mxGeometry x="130" y="325" width="256" height="100" as="geometry" />
        </mxCell>
        <mxCell id="63oONz0xdTf-GP-1cinu-37" value="Yes" style="text;html=1;strokeColor=none;fillColor=none;align=center;verticalAlign=middle;whiteSpace=wrap;rounded=0;fontSize=12;" vertex="1" parent="1">
          <mxGeometry x="140" y="295" width="60" height="30" as="geometry" />
        </mxCell>
        <mxCell id="63oONz0xdTf-GP-1cinu-38" style="edgeStyle=orthogonalEdgeStyle;rounded=0;orthogonalLoop=1;jettySize=auto;html=1;exitX=0;exitY=0.5;exitDx=0;exitDy=0;entryX=1;entryY=0.5;entryDx=0;entryDy=0;fontSize=12;" edge="1" parent="1" source="63oONz0xdTf-GP-1cinu-39" target="63oONz0xdTf-GP-1cinu-25">
          <mxGeometry relative="1" as="geometry" />
        </mxCell>
        <mxCell id="63oONz0xdTf-GP-1cinu-39" value="is there no callUuid ?" style="rhombus;whiteSpace=wrap;html=1;fontSize=12;fillColor=#d5e8d4;strokeColor=#82b366;" vertex="1" parent="1">
          <mxGeometry x="355" y="90" width="150" height="80" as="geometry" />
        </mxCell>
        <mxCell id="63oONz0xdTf-GP-1cinu-40" value="yes" style="text;html=1;strokeColor=none;fillColor=none;align=center;verticalAlign=middle;whiteSpace=wrap;rounded=0;fontSize=12;" vertex="1" parent="1">
          <mxGeometry x="280" y="100" width="60" height="30" as="geometry" />
        </mxCell>
        <mxCell id="63oONz0xdTf-GP-1cinu-48" style="edgeStyle=orthogonalEdgeStyle;rounded=0;orthogonalLoop=1;jettySize=auto;html=1;exitX=0.5;exitY=0;exitDx=0;exitDy=0;entryX=0.5;entryY=1;entryDx=0;entryDy=0;fontSize=12;" edge="1" parent="1" source="63oONz0xdTf-GP-1cinu-44" target="63oONz0xdTf-GP-1cinu-39">
          <mxGeometry relative="1" as="geometry" />
        </mxCell>
        <mxCell id="63oONz0xdTf-GP-1cinu-51" style="edgeStyle=orthogonalEdgeStyle;rounded=0;orthogonalLoop=1;jettySize=auto;html=1;exitX=0.75;exitY=0;exitDx=0;exitDy=0;entryX=0.5;entryY=1;entryDx=0;entryDy=0;fontSize=12;" edge="1" parent="1" source="63oONz0xdTf-GP-1cinu-44" target="63oONz0xdTf-GP-1cinu-46">
          <mxGeometry relative="1" as="geometry" />
        </mxCell>
        <mxCell id="63oONz0xdTf-GP-1cinu-44" value="RegularizationFormVoxpay.jsx" style="shape=parallelogram;perimeter=parallelogramPerimeter;whiteSpace=wrap;html=1;fixedSize=1;strokeColor=#6c8ebf;fontSize=12;fillColor=#dae8fc;" vertex="1" parent="1">
          <mxGeometry x="330" y="270" width="200" height="65" as="geometry" />
        </mxCell>
        <mxCell id="63oONz0xdTf-GP-1cinu-46" value="shared presentational component" style="shape=parallelogram;perimeter=parallelogramPerimeter;whiteSpace=wrap;html=1;fixedSize=1;strokeColor=#6c8ebf;fontSize=12;fillColor=#dae8fc;" vertex="1" parent="1">
          <mxGeometry x="510" y="170" width="170" height="60" as="geometry" />
        </mxCell>
        <mxCell id="63oONz0xdTf-GP-1cinu-55" style="edgeStyle=orthogonalEdgeStyle;rounded=0;orthogonalLoop=1;jettySize=auto;html=1;exitX=0.5;exitY=0;exitDx=0;exitDy=0;entryX=0;entryY=0.25;entryDx=0;entryDy=0;fontSize=12;" edge="1" parent="1" source="63oONz0xdTf-GP-1cinu-52" target="63oONz0xdTf-GP-1cinu-54">
          <mxGeometry relative="1" as="geometry" />
        </mxCell>
        <mxCell id="63oONz0xdTf-GP-1cinu-52" value="CreditCardFormBills.jsx" style="shape=parallelogram;perimeter=parallelogramPerimeter;whiteSpace=wrap;html=1;fixedSize=1;strokeColor=#6c8ebf;fontSize=12;fillColor=#dae8fc;" vertex="1" parent="1">
          <mxGeometry x="292" y="550" width="156" height="60" as="geometry" />
        </mxCell>
        <mxCell id="63oONz0xdTf-GP-1cinu-54" value="shared presentational component" style="shape=parallelogram;perimeter=parallelogramPerimeter;whiteSpace=wrap;html=1;fixedSize=1;strokeColor=#6c8ebf;fontSize=12;fillColor=#dae8fc;" vertex="1" parent="1">
          <mxGeometry x="460" y="500" width="170" height="60" as="geometry" />
        </mxCell>
      </root>
    </mxGraphModel>
  </diagram>
</mxfile>
